PathFileType	4	(X/Y/Z)	/home/abdul/Desktop/myosuite/custom_workspace/IK/output/S11_12_1.trc
DataRate	CameraRate	NumFrames	NumMarkers	Units	OrigDataRate	OrigDataStartFrame	OrigNumFrames
200.0	200.0	28	3	mm	200.0	387	1546
Frame#	Time	V_Shoulder			V_Elbow			V_Wrist		
		X1	Y1	Z1	X2	Y2	Z2	X3	Y3	Z3

387	1.93	-92.81682218550812	539.438268206288	281.2279212494257	-271.86317397867253	373.87097800433986	30.200843758119532	-122.46364508776824	170.90596942313792	98.00608545405376
388	1.935	-92.93871204265416	540.0837129347779	281.32372069576724	-272.06149697157105	374.34580395691086	30.521009438308305	-122.27895046113822	171.9011400820853	99.13817039344812
389	1.94	-93.06125897877446	540.7387183799905	281.42232162399824	-272.2617146198303	374.823470951389	30.85270960906969	-122.09374893996804	172.9082903909949	100.28281560469102
390	1.945	-93.18440766385027	541.4031584456102	281.52370658703825	-272.4636047878235	375.30371646954455	31.19594015512157	-121.90789104351927	173.92741590478735	101.44013497029331
391	1.95	-93.30810269916617	542.0769043620676	281.6278548930239	-272.6669388021659	375.7862789553851	31.550685390666533	-121.72121755959115	174.95852025562368	102.61024257032284
392	1.955	-93.43228867088901	542.7598246961949	281.73474260497056	-272.87148191051597	376.2708981145903	31.916918086972856	-121.53356003112026	176.00161477563864	103.79325152624537
393	1.96	-93.55691020203678	543.4517853563001	281.8443425486242	-273.0769937691789	376.75731521641126	32.294599520012895	-121.34474129658305	177.05671805695926	104.98927280920307
394	1.965	-93.68191200280948	544.152649592866	281.95662432849065	-273.28322895883355	377.245273398369	32.683679537610374	-121.15457608304575	178.1238554503367	106.19841401729394
395	1.97	-93.80723891926289	544.8622779951082	282.07155435199917	-273.48993752755894	377.7345179740214	33.084096645518784	-120.9628716504375	179.20305850400192	107.42077812664198
396	1.975	-93.932835980315	545.5805284836612	282.1890958617291	-273.69686556018644	378.2247967439957	33.49577811182694	-120.76942848535714	180.29436434463352	108.65646222125724
397	1.98	-94.05864844308371	546.3072562996941	282.3092089755992	-273.90375577285346	378.71586031041045	33.91864008906469	-120.57404104246388	181.3978150025962	109.9055562068741
398	1.985	-94.184621836561	547.0423139907822	282.43185073489354	-274.1103481314857	379.20746239472646	34.352587753361	-120.37649853124822	182.5134566838719	111.16814151412433
399	1.99	-94.31070200363841	547.7855513938894	282.55697515996707	-274.3163804927834	379.6993601589811	34.79751545998858	-120.17658574573198	183.64133899136013	112.44428979654849
400	1.995	-94.4368351415031	548.5368156158455	282.6845333134516	-274.52158926614004	380.1913145302716	35.2533069146136	-119.97408393440995	184.78151409846782	113.73406162907179
401	2.0	-94.56296784043214	549.2959510117223	282.81447337075406	-274.72571009477394	380.6830905282578	35.71983535955578	-119.76877170751627	185.9340358781442	115.0375052126711
402	2.005	-94.68904712101732	550.0627991615364	282.94674069761476	-274.92847855421235	381.1744575953617	36.1969637743528	-119.56042597848318	187.09895899073712	116.35465509103446
403	2.01	-94.81502046985797	550.8371988457255	283.08127793447215	-275.12963086612706	381.66518992924296	36.684545089914195	-119.34882293625421	188.27633793425792	117.68553088506407
404	2.015	-94.9408358737648	551.6189860198626	283.2180250873535	-275.32890462538825	382.155066817035	37.18242241554277	-119.13373904492231	189.46622606083707	119.03013605109804
405	2.02	-95.06644185252087	552.4079937890888	283.3569196249937	-275.52603953807505	382.64387297072324	37.690429278096914	-118.91495206698585	190.6686745633348	120.38845666872314
406	2.025	-95.1917874902494	553.2040523827562	283.49789658186097	-275.720778168061	383.1313988629589	38.208389872564254	-118.69224210635228	191.88373143623818	121.76046026402183
407	2.03	-95.31682246544153	554.0069891297827	283.64088866675377	-275.91286668967996	383.6174410625007	38.73611932331594	-118.46539266707131	193.11144041512694	123.14609467404068
408	2.035	-95.44149707969814	554.8166284352296	283.78582637660946	-276.102055643874	384.10180256838635	39.27342395531244	-118.23419172364781	194.3518398991241	124.5452869581839
409	2.04	-95.56576228524295	555.6327917586149	283.93263811515726	-276.2881006951306	384.58429314184946	39.820101574534455	-117.9984327986704	195.60496186086675	125.95794236212507
410	2.045	-95.68956971126401	556.4552975944802	284.0812503160278	-276.4707633864324	385.06472963491	40.37594175691791	-117.75791604339284	196.8708307486312	127.38394333969322
411	2.05	-95.81287168914129	557.2839614557255	284.2315875699225	-276.64981188937145	385.5429363144871	40.94072614507917	-117.51244931682584	198.14946238532963	128.8231486380248
412	2.055	-95.93562127661853	558.118595860224	284.3835727554338	-276.8250217465171	386.01874518080785	41.51422875212586	-117.26184925883427	199.4408628691604	130.27539245108284
413	2.06	-96.057772280976	558.9590103212231	284.53712717310026	-276.99617660308166	386.4919962788192	42.096216271860236	-117.00594235269082	200.74502748073786	131.7404836464276
414	2.065	-96.17927928126018	559.8050113420262	284.69217068227005	-277.1630689248902	386.96253800124583	42.686448394695276	-116.74456597251177	202.06193960155565	133.21820506988328
